<svg width="30" height="30" viewBox="0 0 30 30" fill="none" xmlns="http://www.w3.org/2000/svg">
<path d="M15.1 29.3C22.9977 29.3 29.4 22.8977 29.4 15C29.4 7.10234 22.9977 0.700012 15.1 0.700012C7.20232 0.700012 0.799988 7.10234 0.799988 15C0.799988 22.8977 7.20232 29.3 15.1 29.3Z" stroke="#27300F"/>
<path d="M22.4 14.3H15.7V7.6C15.7 7.3 15.4 7 15.1 7C14.8 7 14.5 7.3 14.5 7.6V14.3H7.69998C7.39998 14.3 7.09998 14.6 7.09998 14.9C7.09998 15.2 7.39998 15.5 7.69998 15.5H14.4V22.2C14.4 22.5 14.7 22.8 15 22.8C15.3 22.8 15.6 22.5 15.6 22.2V15.5H22.3C22.6 15.5 22.9 15.2 22.9 14.9C23 14.6 22.7 14.3 22.4 14.3Z" fill="#27300F"/>
</svg>
