<svg width="512" height="293" viewBox="0 0 512 293" fill="none" xmlns="http://www.w3.org/2000/svg">
<g clip-path="url(#clip0_38_31)">
<path d="M488.6 291.8L420.2 292.8C420.2 292.8 405.5 295.7 386.2 282.4C360.6 264.8 336.5 219.2 317.7 225.2C298.6 231.2 299.2 272.3 299.2 272.3C299.2 272.3 299.4 281 295 285.7C290.3 290.8 281.1 291.8 281.1 291.8H250.5C250.5 291.8 183 295.9 123.5 234C58.7 166.4 1.39997 32.4 1.39997 32.4C1.39997 32.4 -1.90003 23.6 1.69997 19.4C5.69997 14.6 16.7 14.3 16.7 14.3L89.8 13.9C89.8 13.9 96.7 15 101.7 18.6C105.7 21.6 108 27.2 108 27.2C108 27.2 119.8 57.1 135.5 84.1C166.1 137 180.3 148.5 190.7 142.8C205.8 134.6 201.3 68.2 201.3 68.2C201.3 68.2 201.6 44.1 193.7 33.3C187.6 25 176 22.6 171 21.9C166.8 21.4 173.6 11.8 182.3 7.49998C195.5 1.09998 218.8 0.699984 246.2 0.999984C267.6 1.19998 273.8 2.59998 282.2 4.59998C307.4 10.7 298.8 34.2 298.8 90.6C298.8 108.6 295.6 134.1 308.6 142.5C314.2 146.1 327.9 143 362.2 84.8C378.4 57.2 390.6 24.8 390.6 24.8C390.6 24.8 393.3 19 397.4 16.5C401.7 14 407.4 14.8 407.4 14.8L484.3 14.3C484.3 14.3 507.4 11.6 511.2 22C515.1 33 502.5 58.6 471.1 100.5C419.4 169.3 413.7 162.8 456.6 202.7C497.5 240.7 506 259.2 507.4 261.5C524.4 289.6 488.6 291.8 488.6 291.8V291.8Z" fill="black"/>
</g>
<defs>
<clipPath id="clip0_38_31">
<rect width="512" height="293" fill="white"/>
</clipPath>
</defs>
</svg>
