<svg width="512" height="512" viewBox="0 0 512 512" fill="none" xmlns="http://www.w3.org/2000/svg">
<g clip-path="url(#clip0_37_13)">
<path d="M352 0H160C117.565 0 76.8687 16.8571 46.8629 46.8629C16.8571 76.8687 0 117.565 0 160L0 352C0 394.435 16.8571 435.131 46.8629 465.137C76.8687 495.143 117.565 512 160 512H352C394.435 512 435.131 495.143 465.137 465.137C495.143 435.131 512 394.435 512 352V160C512 117.565 495.143 76.8687 465.137 46.8629C435.131 16.8571 394.435 0 352 0V0ZM464 352C463.968 381.694 452.158 410.164 431.161 431.161C410.164 452.158 381.694 463.968 352 464H160C130.306 463.968 101.836 452.158 80.8391 431.161C59.8419 410.164 48.0318 381.694 48 352V160C48.0318 130.306 59.8419 101.836 80.8391 80.8391C101.836 59.8419 130.306 48.0318 160 48H352C381.694 48.0318 410.164 59.8419 431.161 80.8391C452.158 101.836 463.968 130.306 464 160V352Z" fill="#27300F"/>
<path d="M256 128C230.684 128 205.937 135.507 184.887 149.572C163.838 163.637 147.431 183.628 137.743 207.017C128.055 230.405 125.521 256.142 130.46 280.972C135.398 305.801 147.589 328.609 165.49 346.51C183.392 364.411 206.199 376.602 231.028 381.541C255.858 386.479 281.595 383.945 304.984 374.257C328.372 364.569 348.363 348.162 362.428 327.113C376.493 306.063 384 281.316 384 256C384 222.052 370.514 189.495 346.51 165.49C322.505 141.486 289.948 128 256 128ZM256 336C240.178 336 224.71 331.308 211.554 322.518C198.399 313.727 188.145 301.233 182.09 286.615C176.035 271.997 174.45 255.911 177.537 240.393C180.624 224.874 188.243 210.62 199.432 199.431C210.62 188.243 224.874 180.624 240.393 177.537C255.911 174.45 271.997 176.035 286.615 182.09C301.233 188.145 313.727 198.398 322.518 211.554C331.308 224.71 336 240.177 336 256C335.971 277.208 327.533 297.54 312.536 312.536C297.54 327.533 277.208 335.971 256 336V336Z" fill="#27300F"/>
<path d="M393.6 135.46C403.022 135.46 410.66 127.822 410.66 118.4C410.66 108.978 403.022 101.34 393.6 101.34C384.178 101.34 376.54 108.978 376.54 118.4C376.54 127.822 384.178 135.46 393.6 135.46Z" fill="#27300F"/>
</g>
<defs>
<clipPath id="clip0_37_13">
<rect width="512" height="512" fill="white"/>
</clipPath>
</defs>
</svg>
